{"title":"The Universe: 7 Wonders of the World  BD-Rip [3D S.B.S]","uid":6922449,"size":3855673781,"categoryP":"video","categoryS":"3d","magnet":"?xt=urn:btih:0bf293b97951b982cd4351b1417c7fe5866bc016&amp;dn=The+Universe%3A+7+Wonders+of+the+World++BD-Rip+%5B3D+S.B.S%5D&amp;tr=udp%3A%2F%2Ftracker.openbittorrent.com%3A80&amp;tr=udp%3A%2F%2Fopen.demonii.com%3A1337&amp;tr=udp%3A%2F%2Ftracker.coppersurfer.tk%3A6969&amp;tr=udp%3A%2F%2Fexodus.desync.com%3A6969","seeders":2,"leechers":1,"uploader":"L3G3ND","files":90,"time":1325322689,"description":"This is Stereoscopic 3D (3D TV or Nvidia 3D Vision Required) Blu-ray rip of the History Channel special, The Universe: 7 Wonders of the World. Resolution is 1920x1080 (Half Side-by-Side). Tested with Stereoscopic player.\n\nDescription: We are in the midst of the greatest era of space discovery. Twenty first-century spacecraft and sophisticated imaging technology are venturing into uncharted territory every day, and much of the extraordinary phenomena are happening right in our own cosmic backyard.\n\nTake an exhilarating, unprecedented 3D tour of the seven most amazing wonders of our solar system, beginning with a trip to Enceladus, one of Saturn s outer moons, where icy geysers spout from its surface. Then venture to Saturn s famous rings, which contain mountain ranges that rival the Alps; dive into Jupiter s Great Red Spot, the eye of the biggest storm in the solar system; soar through the Asteroid Belt, made of millions of rocks left over from the formation of the solar system; trek up Mount Olympus, the largest volcano located on Mars; have a close encounter with the searing surface of the sun; and finish the journey by exploring our very own home planet Earth.\n\nDescription from amazon.com: http://www.amazon.com/Universe-Wonders-Solar-System-Blu-ray/dp/B0043VUHXC/ref=sr_1_1?ie=UTF8&amp;s=dvd&amp;qid=1299547380&amp;sr=8-1\n\nGeneral\nUnique ID : 179063618386880340742384633572959948526 (0x86B666017C354501A9809988F54F8EEE)\nComplete name : [filepath]\\The Universe 3D.mkv\nFormat : Matroska\nFile size : 3.54 GiB\nDuration : 44mn 4s\nOverall bit rate : 11.5 Mbps\nEncoded date : UTC 2010-12-03 03:39:02\nWriting application : mkvmerge v4.3.0 ('Escape from the Island') gemaakt op Sep 5 2010 10:30:51\nWriting library : libebml v1.0.0 + libmatroska v1.0.0\n\nVideo\nID : 1\nFormat : AVC\nFormat/Info : Advanced Video Codec\nFormat profile : &lt;a class=&quot;__cf_email__&quot; href=&quot;/cdn-cgi/l/email-protection&quot; data-cfemail=&quot;bff7d6d8d7fff38b918f&quot;&gt;[email&amp;#160;protected]&lt;/a&gt;&lt;script cf-hash='f9e31' type=&quot;text/javascript&quot;&gt;\n/* &lt;![CDATA[ */!function(){try{var t=&quot;currentScript&quot;in document?document.currentScript:function(){for(var t=document.getElementsByTagName(&quot;script&quot;),e=t.length;e--;)if(t[e].getAttribute(&quot;cf-hash&quot;))return t[e]}();if(t&amp;&amp;t.previousSibling){var e,r,n,i,c=t.previousSibling,a=c.getAttribute(&quot;data-cfemail&quot;);if(a){for(e=&quot;&quot;,r=parseInt(a.substr(0,2),16),n=2;a.length-n;n+=2)i=parseInt(a.substr(n,2),16)^r,e+=String.fromCharCode(i);e=document.createTextNode(e),c.parentNode.replaceChild(e,c)}}}catch(u){}}();/* ]]&gt; */&lt;/script&gt;\nFormat settings, CABAC : Yes\nFormat settings, ReFrames : 4 frames\nCodec ID : V_MPEG4/ISO/AVC\nDuration : 44mn 4s\nBit rate : 10 000 Kbps\nWidth : 1 920 pixels\nHeight : 1 080 pixels\nDisplay aspect ratio : 16:9\nFrame rate mode : Variable\nFrame rate : 23.976 fps\nColor space : YUV\nChroma subsampling : 4:2:0\nBit depth : 8 bits\nScan type : Progressive\nBits/(Pixel*Frame) : 0.201\nStream size : 3.00 GiB (85%)\nWriting library : x264 core 107 r1745 4785e8e\n\nAudio\nID : 2\nFormat : DTS\nFormat/Info : Digital Theater Systems\nCodec ID : A_DTS\nDuration : 44mn 4s\nBit rate mode : Constant\nBit rate : 1 510 Kbps\nChannel(s) : 6 channels\nChannel positions : Front: L C R, Side: L R, LFE\nSampling rate : 48.0 KHz\nBit depth : 24 bits\nCompression mode : Lossy\nStream size : 476 MiB (13%)","torrent":{"xt":"urn:btih:0bf293b97951b982cd4351b1417c7fe5866bc016","amp;dn":"The+Universe%3A+7+Wonders+of+the+World++BD-Rip+%5B3D+S.B.S%5D","amp;tr":["udp%3A%2F%2Ftracker.openbittorrent.com%3A80","udp%3A%2F%2Fopen.demonii.com%3A1337","udp%3A%2F%2Ftracker.coppersurfer.tk%3A6969","udp%3A%2F%2Fexodus.desync.com%3A6969"],"infoHash":"0bf293b97951b982cd4351b1417c7fe5866bc016","infoHashBuffer":{"type":"Buffer","data":[11,242,147,185,121,81,185,130,205,67,81,177,65,124,127,229,134,107,192,22]},"announce":[],"urlList":[]}}